<svg width="18" height="18" viewBox="0 0 18 18" fill="none" xmlns="http://www.w3.org/2000/svg">
<path fill-rule="evenodd" clip-rule="evenodd" d="M0.625 0.875C0.625 0.529822 0.904822 0.25 1.25 0.25H2.66021C2.95294 0.25 3.23639 0.352741 3.46114 0.54031C3.68589 0.72788 3.83768 0.98838 3.89005 1.27639L5.97615 12.75H14.375C14.7202 12.75 15 13.0298 15 13.375C15 13.7202 14.7202 14 14.375 14H5.45455C5.15249 14 4.89366 13.784 4.83963 13.4868L2.66021 1.5H1.25C0.904822 1.5 0.625 1.22018 0.625 0.875Z" fill="#333333"/>
<path fill-rule="evenodd" clip-rule="evenodd" d="M6.25 14C5.73223 14 5.3125 14.4197 5.3125 14.9375C5.3125 15.4553 5.73223 15.875 6.25 15.875C6.76777 15.875 7.1875 15.4553 7.1875 14.9375C7.1875 14.4197 6.76777 14 6.25 14ZM4.0625 14.9375C4.0625 13.7294 5.04188 12.75 6.25 12.75C7.45812 12.75 8.4375 13.7294 8.4375 14.9375C8.4375 16.1456 7.45812 17.125 6.25 17.125C5.04188 17.125 4.0625 16.1456 4.0625 14.9375Z" fill="#333333"/>
<path fill-rule="evenodd" clip-rule="evenodd" d="M14.375 14C13.8572 14 13.4375 14.4197 13.4375 14.9375C13.4375 15.4553 13.8572 15.875 14.375 15.875C14.8928 15.875 15.3125 15.4553 15.3125 14.9375C15.3125 14.4197 14.8928 14 14.375 14ZM12.1875 14.9375C12.1875 13.7294 13.1669 12.75 14.375 12.75C15.5831 12.75 16.5625 13.7294 16.5625 14.9375C16.5625 16.1456 15.5831 17.125 14.375 17.125C13.1669 17.125 12.1875 16.1456 12.1875 14.9375Z" fill="#333333"/>
<path fill-rule="evenodd" clip-rule="evenodd" d="M3.125 4C3.125 3.65482 3.40482 3.375 3.75 3.375H16.875C17.0603 3.375 17.2361 3.45725 17.3548 3.59953C17.4736 3.74182 17.5231 3.92947 17.4899 4.1118L16.5402 9.33541C16.4616 9.76743 16.2339 10.1582 15.8968 10.4395C15.5597 10.7209 15.1345 10.875 14.6954 10.875H4.88636C4.54118 10.875 4.26136 10.5952 4.26136 10.25C4.26136 9.90482 4.54118 9.625 4.88636 9.625H14.6954C14.8418 9.625 14.9835 9.57363 15.0959 9.47984C15.2083 9.38606 15.2842 9.25581 15.3103 9.1118L16.1261 4.625H3.75C3.40482 4.625 3.125 4.34518 3.125 4Z" fill="#333333"/>
</svg>
