<svg width="50" height="50" viewBox="0 0 50 50" fill="none" xmlns="http://www.w3.org/2000/svg">
<rect width="50" height="50" rx="12" fill="#009999"/>
<path fill-rule="evenodd" clip-rule="evenodd" d="M28.0036 4.22465C30.9815 4.9147 33.7238 6.53359 35.9059 8.88967L37.143 10.2252L38.1058 10.35C40.9028 10.7128 42.75 11.5433 44.1961 13.0883C44.8846 13.8239 45.5622 15.1035 45.7801 16.0799C46.6892 20.1536 44.7683 25.0776 40.2294 30.3085C39.0798 31.6334 39.0566 31.6722 38.5545 33.1176C36.5742 38.818 34.0965 43.3635 32.0934 44.9714C31.1091 45.7612 30.5466 45.9968 29.6366 46C28.0198 46.0056 26.6222 44.751 25.3119 42.118C25.0161 41.5235 24.8854 41.367 24.739 41.4321C23.8061 41.8473 22.2866 42.3995 21.3519 42.6629C20.4068 42.9294 19.887 42.9927 18.242 43.0415C16.0194 43.1076 15.0358 42.9874 13.5416 42.4671C11.6621 41.8126 10.1395 40.6708 9.26217 39.2578C8.28915 37.691 7.97874 34.8587 8.59241 33.1491C9.04919 31.8769 9.58301 31.0426 10.7737 29.7406C11.8304 28.5849 11.8589 28.5393 11.5933 28.4235C11.4419 28.3574 10.7122 28.0502 9.97163 27.7406C7.96528 26.9021 6.77083 26.1669 5.79032 25.1674C4.47152 23.8228 4 22.5056 4 20.1653C4 16.7563 5.35064 14.3675 8.38751 12.4052C10.1093 11.2926 13.2051 10.248 16.1189 9.79651C16.8273 9.68671 17.5185 9.5724 17.655 9.54247C17.8317 9.50376 18.0439 9.18181 18.3933 8.42251C18.7945 7.55011 19.0573 7.1787 19.843 6.37335C21.4983 4.67642 23.1277 4.01189 25.6618 4.00017C26.5722 3.99602 27.3308 4.06868 28.0036 4.22465ZM24.794 4.9224C23.1199 5.29674 21.6505 6.28932 21.2041 7.34736C21.0908 7.61606 20.9612 8.15198 20.9161 8.53817L20.8341 9.24044H24.348C26.4392 9.24044 28.7794 9.31616 30.1282 9.42754C32.4553 9.61954 36.1928 10.053 36.6098 10.1792L36.844 10.25L36.6098 9.97629C35.8433 9.08032 33.1417 7.09968 31.5459 6.26367C28.9875 4.92338 26.7643 4.48174 24.794 4.9224ZM28.9403 10.2319C26.4271 10.3246 25.1116 10.453 22.7345 10.8375L21.1538 11.0932V13.6782C21.1538 15.7292 21.1096 16.4725 20.9401 17.2763C20.327 20.1828 19.1333 22.5745 16.6169 25.9381C16.075 26.6624 15.4903 27.4535 15.3178 27.6959L15.004 28.1367L16.4981 28.7167C18.2481 29.3962 20.3052 30.3915 21.214 30.9985C23.4147 32.4686 24.9343 34.5324 25.887 37.3454C26.3479 38.7062 26.7033 39.5296 26.8298 39.5296C26.8867 39.5296 27.6877 39.1276 28.61 38.6363C31.4724 37.1115 34.5928 34.9964 37.6522 32.5069L39.0031 31.4077L39.523 30.1253C40.8604 26.8257 41.3758 23.821 41.1266 20.7778C40.8082 16.8922 39.6758 13.8262 37.5129 10.9931L37.0327 10.3641L35.826 10.2941C33.6498 10.1679 31.2616 10.1464 28.9403 10.2319ZM37.6389 10.8428C39.5747 13.3289 40.9017 16.1677 41.4125 18.9157C41.7141 20.539 41.7656 22.8701 41.5361 24.5071C41.3086 26.1287 40.6386 28.3428 39.9032 29.9024L39.4007 30.968L39.8787 30.4018C42.6622 27.1042 44.7639 23.0855 45.2122 20.2039C45.4943 18.3909 45.2676 16.4814 44.6089 15.1226C44.077 14.0253 42.9789 12.8403 41.8429 12.1377C40.9914 11.611 38.858 10.7735 37.7247 10.5209L37.3175 10.4301L37.6389 10.8428ZM16.4332 12.5965C14.5669 13.3944 12.8203 14.6264 11.8221 15.8491C10.3706 17.6271 9.71567 20.0126 9.98146 22.553C10.1761 24.413 11.2496 26.1391 12.7301 26.9725L13.3128 27.3006L14.5534 26.0921C16.9733 23.7349 18.0398 21.8121 18.2309 19.4619C18.3053 18.5469 18.2204 17.7867 17.8262 15.8357C17.6973 15.1975 17.5502 14.1139 17.4994 13.4278L17.4069 12.1803L16.4332 12.5965ZM14.0278 29.8107C13.9233 29.977 13.696 30.5418 13.5226 31.0657C13.2593 31.8617 13.2071 32.2293 13.2054 33.3008C13.2038 34.4196 13.2509 34.7311 13.5753 35.7434C14.4508 38.4752 15.7991 40.0219 17.9923 40.8102C18.777 41.0922 20.8443 41.1918 22.0002 41.0033C23.2407 40.801 24.4909 40.486 24.4909 40.3759C24.4909 40.326 24.2624 39.7167 23.9833 39.0219C22.4087 35.1033 19.8764 32.3236 16.1189 30.389C14.2848 29.4446 14.2618 29.4383 14.0278 29.8107ZM37.7221 32.7088C34.944 35.0878 30.6664 38.2019 28.4277 39.4748C27.7437 39.8636 27.184 40.2495 27.184 40.3321C27.184 40.6079 28.2549 41.9727 28.7499 42.328C29.5099 42.8735 30.1041 43.0172 30.8646 42.8397C32.8958 42.3655 35.2074 39.4947 37.6245 34.4441C38.2791 33.0762 38.7928 31.9345 38.7661 31.9067C38.7393 31.879 38.2695 32.2399 37.7221 32.7088Z" fill="white"/>
</svg>
