<svg width="14" height="14" viewBox="0 0 14 14" fill="none" xmlns="http://www.w3.org/2000/svg">
<path d="M7 0.5C5.3194 0.500031 3.70413 1.15098 2.49312 2.31626C1.28212 3.48154 0.569506 5.07057 0.504821 6.74993C0.440136 8.42928 1.0284 10.0684 2.14619 11.3234C3.26397 12.5784 4.82438 13.3517 6.5 13.481V8.50006H5C4.86739 8.50006 4.74021 8.44738 4.64645 8.35361C4.55268 8.25984 4.5 8.13267 4.5 8.00006C4.5 7.86745 4.55268 7.74027 4.64645 7.64651C4.74021 7.55274 4.86739 7.50006 5 7.50006H6.5V6.00006C6.50061 5.46981 6.71151 4.96146 7.08646 4.58651C7.4614 4.21157 7.96975 4.00067 8.5 4.00006H9.5C9.63261 4.00006 9.75978 4.05274 9.85355 4.14651C9.94732 4.24027 10 4.36745 10 4.50006C10 4.63267 9.94732 4.75984 9.85355 4.85361C9.75978 4.94738 9.63261 5.00006 9.5 5.00006H8.5C8.23488 5.00036 7.9807 5.10582 7.79323 5.29329C7.60576 5.48076 7.5003 5.73494 7.5 6.00006V7.50006H9C9.13261 7.50006 9.25978 7.55274 9.35355 7.64651C9.44732 7.74027 9.5 7.86745 9.5 8.00006C9.5 8.13267 9.44732 8.25984 9.35355 8.35361C9.25978 8.44738 9.13261 8.50006 9 8.50006H7.5V13.481C9.17561 13.3516 10.736 12.5784 11.8538 11.3234C12.9716 10.0684 13.5598 8.42928 13.4952 6.74993C13.4305 5.07058 12.7179 3.48155 11.5069 2.31627C10.2959 1.15099 8.68059 0.500037 7 0.5Z" fill="#16C7BD"/>
</svg>
