<svg width="52" height="52" viewBox="0 0 52 52" fill="none" xmlns="http://www.w3.org/2000/svg">
<path d="M50.8281 14.0586L37.9414 1.17188C37.1896 0.424352 36.1735 0.00329483 35.1133 0H16.8867C15.8265 0.00329591 14.8104 0.424353 14.0586 1.17188L1.17188 14.0586C0.424352 14.8104 0.00329483 15.8265 0 16.8867V35.1133C0.00329591 36.1735 0.424353 37.1896 1.17188 37.9414L14.0586 50.8281C14.8104 51.5756 15.8265 51.9967 16.8867 52H35.1133C36.1735 51.9967 37.1896 51.5756 37.9414 50.8281L50.8281 37.9414C51.5756 37.1896 51.9967 36.1735 52 35.1133V16.8867C51.9967 15.8265 51.5756 14.8104 50.8281 14.0586ZM24 14C24 13.4696 24.2107 12.9609 24.5858 12.5858C24.9609 12.2107 25.4696 12 26 12C26.5304 12 27.0391 12.2107 27.4142 12.5858C27.7893 12.9609 28 13.4696 28 14V28C28 28.5304 27.7893 29.0391 27.4142 29.4142C27.0391 29.7893 26.5304 30 26 30C25.4696 30 24.9609 29.7893 24.5858 29.4142C24.2107 29.0391 24 28.5304 24 28V14ZM26 40C25.4067 40 24.8266 39.8241 24.3333 39.4944C23.8399 39.1648 23.4554 38.6962 23.2284 38.148C23.0013 37.5999 22.9419 36.9967 23.0576 36.4147C23.1734 35.8328 23.4591 35.2982 23.8787 34.8787C24.2982 34.4591 24.8328 34.1734 25.4147 34.0576C25.9967 33.9419 26.5999 34.0013 27.148 34.2284C27.6962 34.4554 28.1648 34.8399 28.4944 35.3333C28.8241 35.8266 29 36.4067 29 37C29 37.7956 28.6839 38.5587 28.1213 39.1213C27.5587 39.6839 26.7956 40 26 40Z" fill="#FA6969"/>
</svg>
