<svg width="56" height="56" viewBox="0 0 56 56" fill="none" xmlns="http://www.w3.org/2000/svg">
<path d="M52.4656 21.7039C51.5225 20.7205 50.5474 19.7039 50.179 18.813C49.8403 17.9946 49.8198 16.6392 49.8 15.3281C49.7632 12.8884 49.7214 10.1233 47.7991 8.20093C45.8767 6.27857 43.1116 6.23682 40.6719 6.19995C39.3608 6.18018 38.0054 6.15967 37.187 5.82104C36.2964 5.45264 35.2795 4.47754 34.2961 3.53442C32.5688 1.87768 30.6106 0 28 0C25.3894 0 23.4314 1.87768 21.7039 3.53442C20.7205 4.47754 19.7039 5.45264 18.813 5.82104C17.9946 6.15967 16.6392 6.18018 15.3281 6.19995C12.8884 6.23682 10.1233 6.27857 8.20093 8.20093C6.27857 10.1233 6.23682 12.8884 6.19995 15.3281C6.18018 16.6392 6.15967 17.9946 5.82104 18.813C5.45264 19.7036 4.47754 20.7205 3.53442 21.7039C1.87768 23.4312 0 25.3894 0 28C0 30.6106 1.87768 32.5686 3.53442 34.2961C4.47754 35.2795 5.45264 36.2961 5.82104 37.187C6.15967 38.0054 6.18018 39.3608 6.19995 40.6719C6.23682 43.1116 6.27857 45.8767 8.20093 47.7991C10.1233 49.7214 12.8884 49.7632 15.3281 49.8C16.6392 49.8198 17.9946 49.8403 18.813 50.179C19.7036 50.5474 20.7205 51.5225 21.7039 52.4656C23.4312 54.1223 25.3894 56 28 56C30.6106 56 32.5686 54.1223 34.2961 52.4656C35.2795 51.5225 36.2961 50.5474 37.187 50.179C38.0054 49.8403 39.3608 49.8198 40.6719 49.8C43.1116 49.7632 45.8767 49.7214 47.7991 47.7991C49.7214 45.8767 49.7632 43.1116 49.8 40.6719C49.8198 39.3608 49.8403 38.0054 50.179 37.187C50.5474 36.2964 51.5225 35.2795 52.4656 34.2961C54.1223 32.5688 56 30.6106 56 28C56 25.3894 54.1223 23.4314 52.4656 21.7039ZM40.3809 23.4468L25.7141 37.4468C25.3421 37.8019 24.8475 38 24.3333 38C23.819 38 23.3244 37.8019 22.9524 37.4468L15.6191 30.4468C15.429 30.2655 15.2765 30.0485 15.1703 29.8082C15.0641 29.5679 15.0062 29.3091 15 29.0465C14.9939 28.7838 15.0395 28.5226 15.1343 28.2776C15.2292 28.0326 15.3713 27.8087 15.5527 27.6186C15.7341 27.4286 15.9511 27.2762 16.1914 27.17C16.4317 27.0639 16.6906 27.0061 16.9532 27C17.2159 26.994 17.4771 27.0397 17.7221 27.1346C17.967 27.2295 18.1909 27.3718 18.3809 27.5532L24.3333 33.2351L37.6191 20.5532C37.8091 20.3718 38.033 20.2295 38.2779 20.1346C38.5229 20.0397 38.7841 19.994 39.0468 20C39.3094 20.0061 39.5683 20.0639 39.8086 20.17C40.0489 20.2762 40.2659 20.4286 40.4473 20.6186C40.6287 20.8087 40.7708 21.0326 40.8657 21.2776C40.9605 21.5226 41.0061 21.7838 41 22.0465C40.9938 22.3091 40.9359 22.5679 40.8297 22.8082C40.7235 23.0485 40.571 23.2655 40.3809 23.4468Z" fill="#16C7BD"/>
</svg>
