<svg width="97" height="43" viewBox="0 0 97 43" fill="none" xmlns="http://www.w3.org/2000/svg">
<path fill-rule="evenodd" clip-rule="evenodd" d="M24.3539 0.229998C27.3753 0.936483 30.1577 2.59391 32.3716 5.00609L33.6267 6.37342L34.6036 6.50121C37.4414 6.87258 39.3156 7.72287 40.7828 9.30464C41.4813 10.0578 42.1688 11.3678 42.3899 12.3675C43.3123 16.5382 41.3633 21.5795 36.7582 26.9349C35.5918 28.2913 35.5683 28.3311 35.0589 29.8108C33.0496 35.647 30.5358 40.3007 28.5034 41.9469C27.5048 42.7555 26.934 42.9967 26.0107 43C24.3703 43.0057 22.9524 41.7213 21.623 39.0255C21.3229 38.417 21.1902 38.2567 21.0417 38.3233C20.0952 38.7484 18.5536 39.3138 17.6052 39.5835C16.6462 39.8563 16.1189 39.9211 14.4499 39.9711C12.1948 40.0387 11.1969 39.9157 9.68087 39.383C7.7739 38.7129 6.22915 37.5439 5.33898 36.0973C4.35175 34.4931 4.03681 31.5934 4.65944 29.8431C5.12288 28.5407 5.66449 27.6865 6.87257 26.3534C7.94474 25.1703 7.9736 25.1235 7.70417 25.005C7.55056 24.9373 6.8102 24.6229 6.05879 24.3059C4.02315 23.4473 2.81128 22.6947 1.81645 21.6714C0.478405 20.2948 0 18.9462 0 16.5502C0 13.06 1.37035 10.6143 4.45154 8.60529C6.1985 7.46628 9.33944 6.3968 12.2958 5.93452C13.0145 5.82211 13.7158 5.70507 13.8543 5.67444C14.0336 5.6348 14.2488 5.30519 14.6033 4.5278C15.0105 3.63463 15.2771 3.25438 16.0742 2.42985C17.7537 0.692527 19.4069 0.0121762 21.978 0.000172225C22.9016 -0.00407919 23.6713 0.07032 24.3539 0.229998ZM21.0975 0.94436C19.3989 1.32761 17.9081 2.34383 17.4552 3.42706C17.3403 3.70215 17.2087 4.25084 17.163 4.64622L17.0798 5.36521H20.645C22.7667 5.36521 25.1411 5.44273 26.5096 5.55677C28.8706 5.75334 32.6627 6.19711 33.0857 6.32628L33.3233 6.3988L33.0857 6.11858C32.3081 5.20128 29.567 3.17348 27.948 2.31757C25.3522 0.945361 23.0966 0.49321 21.0975 0.94436ZM25.3043 6.3803C22.7544 6.4752 21.4197 6.60662 19.008 7.00025L17.4042 7.26209V9.90859C17.4042 12.0084 17.3594 12.7694 17.1874 13.5924C16.5653 16.5681 15.3542 19.0168 12.801 22.4604C12.2512 23.202 11.6581 24.0119 11.4829 24.2601L11.1646 24.7114L12.6806 25.3052C14.456 26.0008 16.5432 27.0199 17.4652 27.6414C19.6981 29.1464 21.2399 31.2593 22.2064 34.1393C22.6741 35.5325 23.0347 36.3755 23.163 36.3755C23.2207 36.3755 24.0334 35.964 24.9692 35.461C27.8734 33.8998 31.0393 31.7344 34.1434 29.1856L35.514 28.0603L36.0415 26.7473C37.3984 23.3692 37.9214 20.2929 37.6684 17.1773C37.3454 13.1992 36.1965 10.0601 34.002 7.15955L33.5148 6.51559L32.2905 6.44394C30.0826 6.31477 27.6596 6.29277 25.3043 6.3803ZM34.1299 7.00575C36.094 9.55097 37.4403 12.4574 37.9585 15.2709C38.2646 16.9328 38.3168 19.3194 38.084 20.9954C37.8532 22.6556 37.1734 24.9223 36.4272 26.5191L35.9174 27.6101L36.4024 27.0304C39.2265 23.6543 41.3588 19.5399 41.8137 16.5897C42.0999 14.7336 41.8699 12.7785 41.2017 11.3875C40.6619 10.264 39.5478 9.05081 38.3952 8.33144C37.5313 7.79226 35.3668 6.93473 34.2169 6.67614L33.8038 6.58324L34.1299 7.00575ZM12.6146 8.80123C10.7211 9.61812 8.94907 10.8794 7.9363 12.1312C6.46354 13.9516 5.79909 16.3939 6.06877 18.9947C6.26621 20.899 7.35537 22.6662 8.85747 23.5195L9.44874 23.8554L10.7074 22.6181C13.1627 20.2048 14.2447 18.2362 14.4386 15.8301C14.5141 14.8933 14.428 14.115 14.028 12.1175C13.8972 11.4641 13.748 10.3547 13.6964 9.65226L13.6026 8.37508L12.6146 8.80123ZM81.2841 13.6104C82.4508 16.2541 83.3787 18.4908 83.3458 18.5809C83.303 18.6983 82.9974 18.7447 82.266 18.7447H81.2458L80.9258 17.9985L80.6056 17.2524L78.8714 17.2483L77.1372 17.2442L76.9186 17.7756C76.5407 18.6945 76.463 18.7447 75.4158 18.7447C74.6817 18.7447 74.4649 18.703 74.4096 18.5516C74.3475 18.3814 78.2421 9.32465 78.5636 8.89163C78.6299 8.80235 78.7917 8.74608 78.9233 8.76659C79.1127 8.7961 79.6051 9.80643 81.2841 13.6104ZM53.6733 9.84695C53.695 10.4163 53.6556 10.832 53.5695 10.9411C53.4718 11.0651 53.1548 11.1171 52.4967 11.1171H51.5625L51.5312 14.8996L51.4997 18.6821H50.4305H49.3613L49.3298 14.8996L49.2985 11.1171H48.3735C47.8125 11.1171 47.3926 11.0581 47.3061 10.9671C47.158 10.8113 47.1071 9.41693 47.2363 9.06219C47.301 8.88488 47.6657 8.86612 50.4736 8.89563L53.6381 8.92889L53.6733 9.84695ZM93.0699 8.94227C93.2285 9.00629 93.2578 9.28226 93.2578 10.7062C93.2578 12.2714 93.2729 12.3865 93.4657 12.2871C93.58 12.2282 94.1056 12.18 94.6335 12.18C95.5092 12.18 95.633 12.2117 96.0435 12.5416C96.8722 13.2072 97 13.7186 97 16.3689V18.6821H95.9902H94.9804L94.921 16.6388C94.864 14.6787 94.8502 14.5858 94.5811 14.3568C94.2262 14.0547 93.9526 14.0547 93.5977 14.3568C93.3286 14.5859 93.3148 14.6789 93.2578 16.6388L93.1984 18.6821H92.1886H91.1788L91.1477 13.9452C91.1254 10.5528 91.1548 9.15972 91.2513 9.0373C91.3903 8.861 92.6993 8.7926 93.0699 8.94227ZM62.6341 9.21024C62.9394 9.57661 63.1891 10.1854 63.098 10.3407C62.9811 10.5399 60.7092 11.6128 60.3991 11.6153C60.144 11.6173 59.871 11.1719 59.8795 10.7674C59.8823 10.6338 60.336 10.2647 61.0972 9.77692C61.7645 9.34928 62.3423 8.99767 62.3812 8.99542C62.42 8.99316 62.5339 9.08982 62.6341 9.21024ZM57.8033 12.3842C57.9725 12.5621 57.9538 12.6566 57.6001 13.4116L57.2105 14.2432H56.6505C55.7532 14.2432 55.7173 14.3309 55.7153 16.534C55.7142 17.578 55.6696 18.505 55.6159 18.594C55.5461 18.7096 55.25 18.7454 54.5782 18.719L53.6381 18.6821L53.6064 15.4623L53.5747 12.2425H54.1733C54.6964 12.2425 54.7888 12.2819 54.9071 12.5551C55.058 12.9037 55.1833 12.9484 55.325 12.7039C55.3773 12.6137 55.5537 12.4412 55.7171 12.3204C56.0987 12.0383 57.5158 12.0816 57.8033 12.3842ZM70.2742 12.6254C71.02 13.1884 71.0784 13.4993 70.5475 14.0802C69.9348 14.7506 69.7874 14.7993 69.3539 14.4744C68.8053 14.0631 68.2683 14.1042 67.804 14.5929C67.5002 14.9126 67.4242 15.0952 67.4242 15.506C67.4242 15.9271 67.4935 16.0844 67.8096 16.3816C68.2981 16.8412 68.8306 16.8575 69.4272 16.4314C69.6679 16.2595 69.8924 16.1188 69.926 16.1188C70.1393 16.1188 71.0423 17.0875 71.0423 17.3163C71.0423 17.7353 70.6225 18.1976 69.9077 18.5656C69.3318 18.8622 69.1523 18.8952 68.3959 18.8432C67.3401 18.7707 66.7309 18.4632 66.0648 17.6667C64.6741 16.0037 65.1506 13.434 67.0354 12.4322C67.5878 12.1385 67.7686 12.1063 68.6704 12.141C69.6152 12.1773 69.7245 12.2104 70.2742 12.6254ZM88.7836 12.5311C89.024 12.7242 89.3406 13.118 89.487 13.4064C89.736 13.8965 89.7532 14.0847 89.7532 16.3063V18.6821L88.8132 18.719C88.1413 18.7454 87.8452 18.7096 87.7754 18.594C87.7217 18.505 87.6771 17.6265 87.676 16.642C87.6751 15.6575 87.6196 14.7443 87.5527 14.6129C87.2711 14.0592 86.5002 14.0166 86.2158 14.5389C86.1267 14.7023 86.0474 15.5574 86.011 16.744L85.9516 18.6821H84.9418H83.932V15.4936V12.305L84.4893 12.2673C84.9814 12.2339 85.0648 12.266 85.2025 12.5427L85.3585 12.8559L85.8926 12.4764C86.3957 12.1191 86.4827 12.0993 87.3866 12.1385C88.2221 12.1746 88.403 12.2254 88.7836 12.5311ZM60.6346 12.4403C60.6743 12.5491 60.7067 13.4735 60.7067 14.4945C60.7067 16.5352 60.7719 16.744 61.4095 16.744C62.0459 16.744 62.1228 16.4934 62.1589 14.2994L62.1917 12.305H63.2015H64.2113V15.4936V18.6821L63.8702 18.7232C63.3148 18.7899 62.9968 18.6495 62.9135 18.3006L62.837 17.9794L62.4876 18.2888C61.6958 18.99 60.2328 19.0615 59.4549 18.4371C58.6855 17.8194 58.6321 17.5932 58.5892 14.7746L58.5508 12.2425H59.5566C60.3642 12.2425 60.5767 12.2815 60.6346 12.4403ZM78.4993 14.0277C77.9467 15.3537 77.913 15.2435 78.8703 15.2435C79.3347 15.2435 79.7146 15.2212 79.7146 15.194C79.7146 15.1353 78.8643 13.2413 78.8402 13.2462C78.8311 13.2481 78.6776 13.5997 78.4993 14.0277ZM66.7893 20.508C68.5232 20.8874 70.1096 22.2198 70.8928 23.9549C71.2952 24.8459 71.339 25.0483 71.3798 26.1996C71.4288 27.5876 71.2651 28.4184 70.7195 29.5519C70.342 30.3358 69.1556 31.5807 68.3604 32.0273C64.9145 33.9627 60.7397 31.8263 59.9168 27.7061C59.0768 23.5002 62.7727 19.6291 66.7893 20.508ZM54.1869 22.5952C54.9165 22.9963 55.4594 23.7862 55.5626 24.5967C55.6488 25.273 55.1748 26.3771 54.6611 26.6964C54.1997 26.9834 54.1998 27.0522 54.6618 27.2535C54.8654 27.3423 55.1836 27.6351 55.3688 27.9042C56.0356 28.8733 55.9328 30.1222 55.1086 31.0634C54.3899 31.8842 53.9365 31.9991 51.4192 31.9991H49.3019V27.1224V22.2458H51.4268C53.522 22.2458 53.5604 22.2507 54.1869 22.5952ZM58.7359 22.6306C59.2596 23.2857 59.1263 24.1907 58.4519 24.5578C57.496 25.078 56.5186 24.3079 56.7177 23.1911C56.8228 22.6021 57.2759 22.2458 57.9203 22.2458C58.3417 22.2458 58.4807 22.3113 58.7359 22.6306ZM93.2314 24.029L93.2646 25.7497L93.6362 25.5475C93.9 25.4039 94.2222 25.3596 94.7476 25.3947C95.7057 25.459 96.3204 25.8685 96.7145 26.7054C96.9842 27.2776 96.9994 27.4339 96.9998 29.6233L97 31.9365H95.9902H94.9804L94.921 29.8942C94.8676 28.0581 94.8383 27.8341 94.631 27.6748C94.1331 27.2921 93.4536 27.5445 93.3166 28.1628C93.2834 28.3127 93.2432 29.2231 93.2273 30.186L93.1984 31.9365H92.1886H91.1788L91.1477 27.248C91.1305 24.6693 91.1431 22.4865 91.1755 22.3975C91.2187 22.2788 91.4968 22.2453 92.2164 22.272L93.1984 22.3083L93.2314 24.029ZM64.7459 22.9879C64.0862 23.1999 63.4378 23.6437 63.0483 24.1497C62.3276 25.0863 62.1951 25.4595 62.1933 26.5598C62.1919 27.4367 62.2352 27.6428 62.544 28.2297C63.815 30.6447 66.7797 30.9353 68.3421 28.7981C69.4667 27.2596 69.3409 25.3789 68.0175 23.9455C67.218 23.0797 65.7748 22.6573 64.7459 22.9879ZM75.2941 24.4594L75.3284 25.4853L76.0663 25.5223L76.804 25.5594V26.4972V27.4351L76.0616 27.4723L75.3191 27.5095L75.3208 28.5977C75.3219 29.1961 75.3701 29.7646 75.4281 29.861C75.5066 29.9917 75.6885 30.0168 76.1439 29.96C76.7239 29.8877 76.7603 29.9005 76.8741 30.2157C76.9401 30.3982 77.0047 30.8288 77.0179 31.1725L77.0416 31.7976L76.5665 31.9513C75.8806 32.173 74.5482 32.1636 74.1263 31.9339C73.4872 31.5861 73.2612 30.8916 73.2038 29.0987L73.153 27.5113L72.8401 27.4732C72.5332 27.4358 72.5273 27.4172 72.5273 26.4972C72.5273 25.5672 72.53 25.5591 72.854 25.5199C73.1729 25.4813 73.1807 25.4613 73.1807 24.6676C73.1807 23.4301 73.2507 23.3537 74.3457 23.3973L75.2596 23.4337L75.2941 24.4594ZM51.4403 25.2468V26.1221H52.0421C52.777 26.1221 53.0273 25.9922 53.216 25.513C53.3304 25.2222 53.33 25.0828 53.2145 24.8518C53.0023 24.4281 52.8826 24.3755 52.1234 24.3734L51.4403 24.3715V25.2468ZM81.8699 25.517C82.8738 25.8335 83.8687 27.2015 83.8714 28.2688C83.8737 29.1495 83.9383 29.1231 81.7809 29.1231C80.6774 29.1231 79.8334 29.1729 79.8334 29.2379C79.8334 29.7086 80.3895 30.1234 81.0202 30.1234C81.2221 30.1234 81.6107 30.0035 81.8838 29.8569L82.3803 29.5903L82.8294 30.1231C83.3553 30.7467 83.3966 31.133 82.9747 31.4823C82.0543 32.2444 80.247 32.3512 79.1999 31.7054C78.2067 31.0926 77.693 30.0654 77.6977 28.701C77.7054 26.4211 79.7613 24.8521 81.8699 25.517ZM89.1034 25.7157C89.447 25.9048 89.838 26.2149 89.9726 26.4047L90.2171 26.7498L89.6332 27.3738C89.3121 27.7169 88.9939 27.9965 88.9261 27.995C88.8583 27.9935 88.6692 27.8822 88.5058 27.7477C87.7351 27.1131 86.605 27.7078 86.605 28.748C86.605 29.1554 86.68 29.3462 86.9523 29.6329C87.4089 30.1136 88.0183 30.1281 88.642 29.6731L89.0879 29.3478L89.6879 29.8802C90.0179 30.1731 90.2878 30.4863 90.2878 30.5764C90.2878 30.8614 89.5361 31.6545 89.0415 31.8909C88.3264 32.2328 87.0666 32.2023 86.2957 31.8245C84.1919 30.7934 83.7994 27.7779 85.5624 26.1898C86.5429 25.3063 88.0044 25.1108 89.1034 25.7157ZM58.8653 28.748V31.9365H57.8555H56.8457L56.8122 28.9981C56.7938 27.3819 56.8087 25.9308 56.8453 25.7732C56.909 25.4999 56.9562 25.4885 57.8886 25.5232L58.8653 25.5594V28.748ZM10.1741 26.4252C10.0682 26.5955 9.83757 27.1737 9.66163 27.7101C9.39445 28.525 9.34146 28.9014 9.3398 29.9984C9.33814 31.1439 9.38589 31.4628 9.71509 32.4992C10.6034 35.296 11.9713 36.8796 14.1966 37.6866C14.9926 37.9753 17.0902 38.0773 18.263 37.8843C19.5215 37.6772 20.79 37.3547 20.79 37.2419C20.79 37.1909 20.5582 36.5671 20.275 35.8557C18.6773 31.8439 16.1082 28.9979 12.2958 27.0173C10.4349 26.0505 10.4116 26.044 10.1741 26.4252ZM80.4868 27.2689C80.2381 27.4205 80.0759 27.6202 80.0728 27.7789C80.0719 27.8306 80.4185 27.8727 80.8432 27.8727C81.4199 27.8727 81.6154 27.8291 81.6154 27.7004C81.6154 27.3105 80.8799 27.0292 80.4868 27.2689ZM51.4403 28.9356V29.8734H52.2125C53.0832 29.8734 53.4599 29.6254 53.4599 29.0523C53.4599 28.3476 52.9409 28.0001 51.8858 27.9985L51.4403 27.9977V28.9356ZM34.2143 29.3923C31.3957 31.828 27.0556 35.0162 24.7842 36.3194C24.0902 36.7175 23.5224 37.1125 23.5224 37.1972C23.5224 37.4795 24.6089 38.8769 25.1112 39.2406C25.8822 39.799 26.4851 39.9462 27.2567 39.7644C29.3175 39.279 31.6629 36.3398 34.1153 31.1689C34.7795 29.7685 35.3006 28.5996 35.2735 28.5712C35.2463 28.5428 34.7697 28.9123 34.2143 29.3923ZM40.0949 29.6375C41.0306 30.5975 40.0707 32.2302 38.7916 31.8543C37.8277 31.5711 37.5009 30.3849 38.1808 29.6379C38.7421 29.0212 39.494 29.0211 40.0949 29.6375ZM38.482 29.8637C38.0589 30.3091 38.0377 30.741 38.4163 31.2043C38.9832 31.898 40.1543 31.4534 40.1543 30.5445C40.1543 30.1226 39.5518 29.4982 39.1445 29.4982C38.9544 29.4982 38.6913 29.6434 38.482 29.8637ZM39.7022 30.1893C39.8036 30.4236 39.8043 30.5418 39.7053 30.6461C39.6138 30.7424 39.6086 30.8599 39.6889 31.0179C39.7841 31.2053 39.7631 31.2488 39.5772 31.2488C39.4513 31.2488 39.3174 31.1644 39.2797 31.0613C39.2422 30.9581 39.1563 30.8737 39.0888 30.8737C39.0214 30.8737 38.9663 30.9581 38.9663 31.0613C38.9663 31.1644 38.8861 31.2488 38.7881 31.2488C38.6513 31.2488 38.6099 31.089 38.6099 30.5611V29.8734H39.0876C39.4833 29.8734 39.589 29.9276 39.7022 30.1893ZM38.9663 30.3735C38.9663 30.4423 39.0732 30.4986 39.2039 30.4986C39.3346 30.4986 39.4415 30.4423 39.4415 30.3735C39.4415 30.3048 39.3346 30.2485 39.2039 30.2485C39.0732 30.2485 38.9663 30.3048 38.9663 30.3735Z" fill="#009999"/>
</svg>
