<svg width="56" height="56" viewBox="0 0 56 56" fill="none" xmlns="http://www.w3.org/2000/svg">
<g filter="url(#filter0_b_1196:4881)">
<circle cx="28" cy="28" r="28" fill="black" fill-opacity="0.4"/>
</g>
<path d="M28 5.25C23.5005 5.25 19.102 6.58426 15.3608 9.08407C11.6196 11.5839 8.70365 15.1369 6.98175 19.294C5.25986 23.451 4.80933 28.0252 5.68715 32.4383C6.56496 36.8514 8.73169 40.905 11.9133 44.0867C15.095 47.2683 19.1486 49.435 23.5617 50.3129C27.9748 51.1907 32.549 50.7402 36.7061 49.0183C40.8631 47.2964 44.4161 44.3804 46.916 40.6392C49.4158 36.898 50.75 32.4995 50.75 28C50.743 21.9685 48.3439 16.186 44.079 11.921C39.8141 7.65608 34.0316 5.25697 28 5.25ZM35.9707 29.4561L25.4707 36.4561C25.2072 36.632 24.9009 36.7332 24.5844 36.7486C24.2679 36.7641 23.9532 36.6932 23.6738 36.5437C23.3945 36.3942 23.1609 36.1716 22.9982 35.8997C22.8355 35.6278 22.7497 35.3169 22.75 35V21C22.7497 20.6831 22.8355 20.3722 22.9982 20.1003C23.1609 19.8284 23.3945 19.6058 23.6738 19.4563C23.9532 19.3068 24.2679 19.2359 24.5844 19.2514C24.9009 19.2668 25.2072 19.3679 25.4707 19.5439L35.9707 26.5439C36.2104 26.7037 36.407 26.9203 36.5429 27.1743C36.6789 27.4283 36.75 27.7119 36.75 28C36.75 28.2881 36.6789 28.5717 36.5429 28.8257C36.407 29.0797 36.2104 29.2963 35.9707 29.4561Z" fill="white"/>
<defs>
<filter id="filter0_b_1196:4881" x="-2" y="-2" width="60" height="60" filterUnits="userSpaceOnUse" color-interpolation-filters="sRGB">
<feFlood flood-opacity="0" result="BackgroundImageFix"/>
<feGaussianBlur in="BackgroundImage" stdDeviation="1"/>
<feComposite in2="SourceAlpha" operator="in" result="effect1_backgroundBlur_1196:4881"/>
<feBlend mode="normal" in="SourceGraphic" in2="effect1_backgroundBlur_1196:4881" result="shape"/>
</filter>
</defs>
</svg>
