<svg width="14" height="12" viewBox="0 0 14 12" fill="none" xmlns="http://www.w3.org/2000/svg">
<path d="M13.6457 2.36228C13.5864 2.13231 13.4732 1.91974 13.3156 1.7421C13.158 1.56447 12.9604 1.42686 12.7391 1.34064C10.5973 0.517583 7.18622 0.524449 7 0.525425C6.81388 0.52393 3.4028 0.51755 1.26093 1.34064C1.03965 1.42686 0.842047 1.56445 0.684422 1.74208C0.526797 1.9197 0.413668 2.13226 0.35437 2.36222C0.192687 2.98288 0 4.1178 0 5.99994C0 7.88205 0.192687 9.01697 0.354339 9.63761C0.413627 9.86758 0.526752 10.0802 0.684377 10.2578C0.842003 10.4354 1.03961 10.573 1.2609 10.6592C3.31128 11.4472 6.52475 11.4746 6.95883 11.4746C6.99762 11.4746 7.00238 11.4746 7.04117 11.4746C7.47559 11.4746 10.6888 11.4471 12.7391 10.6592C12.9604 10.573 13.158 10.4354 13.3156 10.2578C13.4732 10.0802 13.5863 9.86763 13.6456 9.63767C13.8073 9.01701 14 7.88209 14 5.99994C14 4.11783 13.8073 2.98292 13.6457 2.36228ZM9.13867 6.20795L6.13867 8.20795C6.10102 8.23306 6.05727 8.24747 6.01207 8.24966C5.96687 8.25185 5.92192 8.24173 5.88203 8.22038C5.84213 8.19902 5.80878 8.16724 5.78552 8.12842C5.76227 8.0896 5.74999 8.0452 5.75 7.99994V3.99994C5.74999 3.95469 5.76227 3.91029 5.78552 3.87147C5.80878 3.83265 5.84213 3.80086 5.88203 3.77951C5.92192 3.75816 5.96687 3.74804 6.01207 3.75023C6.05727 3.75241 6.10102 3.76683 6.13867 3.79194L9.13867 5.79194C9.17292 5.81476 9.201 5.84569 9.22042 5.88198C9.23984 5.91827 9.25 5.95879 9.25 5.99994C9.25 6.0411 9.23984 6.08162 9.22042 6.11791C9.201 6.15419 9.17292 6.18512 9.13867 6.20795Z" fill="#16C7BD"/>
</svg>
