<svg width="23" height="9" viewBox="0 0 23 9" fill="none" xmlns="http://www.w3.org/2000/svg">
<path fill-rule="evenodd" clip-rule="evenodd" d="M0.851654 0.0657325C0.668543 0.142922 0.457083 0.352365 0.388054 0.524883C0.312343 0.713961 0.315832 6.88814 0.391739 7.10208C0.452465 7.27326 0.597991 7.44577 0.753392 7.53076C0.810384 7.56188 1.17159 7.59422 1.61318 7.60767L2.37471 7.63086L2.39928 8.14874L2.42385 8.66667L2.93972 8.30818C3.22345 8.11098 3.57503 7.87213 3.72095 7.7774L3.98636 7.60516L5.89156 7.60929C7.94081 7.61375 7.93919 7.61393 8.18116 7.36854C8.30586 7.24213 8.39326 7.04479 8.39326 6.88986V6.78108L8.19909 6.86968C8.01677 6.95285 7.86893 6.95823 5.76554 6.95823C3.31872 6.95823 3.33925 6.96032 3.06569 6.68566C2.94802 6.56751 2.918 6.49171 2.90277 6.27405L2.88415 6.00728L3.33169 5.42742C4.12329 4.40173 4.70013 3.65595 5.17955 3.03843L5.64767 2.43538L4.60079 2.41219C3.9132 2.39697 3.51824 2.3697 3.45004 2.33277C2.95937 2.06706 2.83438 1.32633 3.21343 0.930223C3.30702 0.83239 3.4612 0.734465 3.57002 0.703663C3.81288 0.634962 8.07818 0.626798 8.26724 0.694664C8.37243 0.732424 8.39311 0.726672 8.39247 0.659873C8.3907 0.485499 8.17153 0.208654 7.95275 0.104373L7.73373 0L4.36639 0.00180921C1.66241 0.00329363 0.970011 0.0158651 0.851654 0.0657325ZM14.5838 0.399217C14.3684 0.472418 14.2711 0.547056 14.1862 0.70408C14.097 0.869222 14.0925 1.01293 14.0926 3.65122C14.0928 6.32026 14.0964 6.43038 14.1887 6.57326C14.3039 6.75162 14.52 6.86569 14.741 6.86476C14.9622 6.86383 15.1246 6.77783 15.2578 6.59121L15.3699 6.43423V3.65632C15.3699 0.645307 15.371 0.659223 15.1024 0.493014C14.9593 0.404506 14.704 0.358349 14.5838 0.399217ZM19.7197 0.461285C19.6617 0.549793 19.7272 0.576466 20.139 0.631993C20.3638 0.662331 20.6436 0.738036 20.8032 0.811747C21.5611 1.16189 22.1008 2.03157 22.1008 2.90284C22.1008 3.17277 22.1753 3.26401 22.2835 3.12671C22.4094 2.96694 22.2846 2.31371 22.0274 1.78595C21.7208 1.15711 21.3375 0.78795 20.7621 0.567328C20.4131 0.433544 19.78 0.369111 19.7197 0.461285ZM19.7129 1.17854C19.6682 1.28857 19.6961 1.3024 20.0457 1.34359C20.2167 1.36372 20.4363 1.41178 20.5338 1.45033C20.9816 1.62762 21.341 2.18915 21.3954 2.79661C21.4186 3.05592 21.4461 3.1544 21.4954 3.1544C21.6074 3.1544 21.6297 3.01658 21.5705 2.69061C21.4432 1.98931 21.1294 1.53132 20.6059 1.28268C20.2564 1.11666 19.7615 1.05895 19.7129 1.17854ZM19.8244 1.79369C19.7419 1.87158 19.8089 1.94905 20.0005 1.99715C20.4623 2.11308 20.6521 2.33402 20.7174 2.83149C20.7514 3.08983 20.833 3.17166 20.9141 3.02859C20.9785 2.91504 20.9032 2.53804 20.765 2.28142C20.6433 2.05555 20.4827 1.93161 20.1817 1.83136C19.9547 1.75575 19.8736 1.74717 19.8244 1.79369ZM7.52325 3.05003C7.05911 3.656 6.49012 4.39788 6.25891 4.69876C6.02765 4.99963 5.83845 5.25532 5.83845 5.26701C5.83845 5.2787 6.37054 5.28826 7.02083 5.28826C7.74193 5.28826 8.24027 5.307 8.29824 5.33627C8.39139 5.38335 8.39326 5.35046 8.39326 3.66629C8.39326 2.72141 8.38736 1.94831 8.38019 1.94831C8.37302 1.94831 7.98734 2.4441 7.52325 3.05003ZM10.2639 2.39943C9.62522 2.64598 9.11892 3.30502 8.95797 4.09914C8.86556 4.55528 8.86605 4.69597 8.96166 5.13944C9.13411 5.93973 9.57319 6.51165 10.2423 6.80761C10.49 6.91718 10.5925 6.93499 10.9726 6.93462C11.3548 6.93425 11.4482 6.9176 11.6605 6.81206C11.7956 6.74489 11.9482 6.64595 11.9997 6.59214C12.1246 6.46169 12.1481 6.46656 12.3384 6.66269C12.4741 6.80255 12.5428 6.83461 12.7444 6.85238C13.0465 6.87896 13.3003 6.73752 13.3896 6.49273C13.4793 6.24664 13.4769 2.92478 13.3868 2.72382C13.3053 2.54198 13.1865 2.44183 12.9714 2.37369C12.7619 2.3073 12.4379 2.40463 12.308 2.57288C12.1971 2.71663 12.0747 2.7229 11.9506 2.59115C11.6387 2.26008 10.8554 2.17106 10.2639 2.39943ZM17.4088 2.37452C16.5367 2.66343 15.9848 3.40077 15.8873 4.40711C15.795 5.35909 16.3496 6.38692 17.1466 6.74081C17.7612 7.01371 18.5549 7.01594 19.1405 6.74638C20.0529 6.32638 20.5808 5.21835 20.3782 4.14868C20.2459 3.44989 19.9001 2.93007 19.3249 2.56518C18.8589 2.26959 17.9874 2.18289 17.4088 2.37452ZM11.5188 3.56786C11.9005 3.73151 12.0781 4.07112 12.0781 4.63743C12.0781 4.93422 12.0557 5.0347 11.943 5.2428C11.7609 5.57893 11.6106 5.67421 11.23 5.69476C10.8416 5.71577 10.6345 5.61687 10.4355 5.31526C10.3133 5.13012 10.2881 5.0372 10.2696 4.70437C10.2367 4.1119 10.4168 3.74056 10.8214 3.56707C11.0753 3.4582 11.2635 3.45843 11.5188 3.56786ZM18.4209 3.53181C18.8242 3.65906 19.0674 4.05424 19.0741 4.59285C19.0778 4.89206 19.0577 4.9801 18.9315 5.21705C18.7668 5.526 18.6215 5.6461 18.3385 5.707C17.9383 5.79319 17.5636 5.6107 17.3639 5.23245C17.1233 4.7766 17.2264 3.98359 17.563 3.7015C17.7999 3.50291 18.1254 3.43857 18.4209 3.53181Z" fill="#16C7BD"/>
</svg>
